<?xml version="1.0" encoding="utf-8"?>
<!-- Generator: Adobe Illustrator 16.0.0, SVG Export Plug-In . SVG Version: 6.00 Build 0)  -->
<!DOCTYPE svg PUBLIC "-//W3C//DTD SVG 1.1//EN" "http://www.w3.org/Graphics/SVG/1.1/DTD/svg11.dtd">
<svg version="1.1" id="Calque_1" xmlns="http://www.w3.org/2000/svg" xmlns:xlink="http://www.w3.org/1999/xlink" x="0px" y="0px"
	 width="100px" height="100px" viewBox="0 0 100 100" enable-background="new 0 0 100 100" xml:space="preserve">
<path fill="#FFFFFF" d="M46.845,2.49c2.103,0,4.207,0,6.31,0c0.165,0.055,0.327,0.146,0.496,0.158
	C60.11,3.127,66.25,4.793,71.937,7.887c14.037,7.639,22.414,19.361,25.043,35.15c0.21,1.264,0.354,2.539,0.53,3.809
	c0,2.103,0,4.207,0,6.31c-0.055,0.165-0.146,0.328-0.158,0.496c-0.479,6.426-2.132,12.534-5.199,18.199
	C84.523,85.939,72.787,94.34,56.964,96.979c-1.265,0.211-2.539,0.355-3.809,0.53c-2.104,0-4.207,0-6.31,0
	c-0.166-0.055-0.328-0.146-0.497-0.158c-6.425-0.48-12.534-2.132-18.2-5.199C14.026,84.505,5.624,72.737,3.007,56.872
	c-0.204-1.234-0.346-2.478-0.517-3.717c0-2.104,0-4.207,0-6.31c0.057-0.196,0.137-0.389,0.167-0.589
	c0.317-2.135,0.497-4.3,0.957-6.403C7.854,20.447,23.526,5.885,43.22,2.991C44.427,2.813,45.637,2.657,46.845,2.49z M50.684,32.149
	c0.296,0.034,0.443,0.055,0.591,0.067c12.228,1.008,19.688,13.364,15.275,24.384c-0.12,0.299-0.089,0.724,0.021,1.038
	c4.394,12.609,2.047,23.821-6.955,33.655c-0.402,0.44-0.913,0.781-1.373,1.169c0.066,0.075,0.134,0.15,0.202,0.225
	c0.181-0.023,0.364-0.034,0.541-0.073c8.008-1.747,15.05-5.364,20.952-11.061c9.146-8.828,13.716-19.635,13.566-32.359
	c-0.108-9.246-3.053-17.571-8.47-25.045c-0.51-0.704-1.122-1.172-1.943-1.478c-7.65-2.841-15.149-2.476-22.471,1.088
	C56.666,25.685,53.399,28.47,50.684,32.149z M34.145,58.223c-0.179-0.417-0.284-0.667-0.394-0.914
	c-0.982-2.2-1.533-4.504-1.561-6.911c-0.092-8.174,4.947-15.051,12.758-17.493c0.347-0.108,0.733-0.37,0.917-0.672
	c1.467-2.419,3.194-4.625,5.248-6.569c5.425-5.133,11.861-8.087,19.302-8.665c2.667-0.207,5.368,0.016,7.978,0.042
	c-0.146-0.13-0.407-0.386-0.691-0.614C67.356,8.155,55.612,4.815,42.567,7.165C27.252,9.923,16.483,18.751,9.992,32.846
	c-0.168,0.365-0.226,0.843-0.167,1.243c1.464,9.967,6.719,17.209,15.731,21.696C28.198,57.101,31.015,57.879,34.145,58.223z
	 M63.688,61.495c-0.482,0.476-0.855,0.842-1.227,1.21c-5.991,5.967-15.674,6.891-22.523,1.909c-1.981-1.441-3.833-2.667-6.354-2.468
	c-0.12,0.009-0.244-0.035-0.367-0.053c-10.511-1.552-18.376-6.989-23.654-16.175c-0.84-1.462-1.465-3.048-2.217-4.634
	c-0.663,3.181-0.936,6.357-0.871,9.572c0.152,7.443,1.966,14.456,5.815,20.824c8.352,13.818,20.644,21.132,36.81,21.812
	c0.684,0.028,1.471-0.204,2.064-0.559c6.246-3.733,10.4-9.128,12.467-16.091C65.136,71.779,65.135,66.68,63.688,61.495z
	 M50.297,63.84c7.836-0.186,13.722-6.704,13.542-14.163c-0.186-7.645-6.516-13.673-14.095-13.516
	c-7.73,0.16-13.712,6.462-13.587,14.021C36.29,58.242,42.939,64.015,50.297,63.84z"/>
</svg>
